# xmcd
#
# Track frame offsets: 
#        150
#        17460
#        41402
#        61457
#        77967
#        105160
#        148740
#        188107
#        215365
#
# Disc length: 3212 seconds
#
# Revision: 4
# Processed by: cddbd v1.5.2PL0 Copyright (c) Steve Scherf et al.
# Submitted via: ExactAudioCopyFreeDBPlugin 1.0
#
DISCID=710c8a09
DTITLE=John Mayer - Where The Light Is - Live In Los Angeles
DYEAR=2008
DGENRE=Blues
TTITLE0=Waiting on the World to Change
TTITLE1=Slow Dancing in a Burning Room
TTITLE2=Why Georgia
TTITLE3=The Heart of Life
TTITLE4=I Don't Need No Doctor
TTITLE5=Gravity
TTITLE6=I Don't Trust Myself (With Loving You)
TTITLE7=Belief
TTITLE8=I'm Gonna Find Another You
EXTD=YEAR: 2008
EXTT0=
EXTT1=
EXTT2=
EXTT3=
EXTT4=
EXTT5=
EXTT6=
EXTT7=
EXTT8=
PLAYORDER=
